<?xml version="1.0" encoding="UTF-8" standalone="no"?>
<!-- Created with Inkscape (http://www.inkscape.org/) -->

<svg
   version="1.1"
   id="svg59"
   width="1200"
   height="1200"
   viewBox="0 0 1200 1200"
   sodipodi:docname="RevFit Site Logo.svg"
   inkscape:version="1.2.1 (9c6d41e410, 2022-07-14)"
   xmlns:inkscape="http://www.inkscape.org/namespaces/inkscape"
   xmlns:sodipodi="http://sodipodi.sourceforge.net/DTD/sodipodi-0.dtd"
   xmlns="http://www.w3.org/2000/svg"
   xmlns:svg="http://www.w3.org/2000/svg">
  <defs
     id="defs63" />
  <sodipodi:namedview
     id="namedview61"
     pagecolor="#ffffff"
     bordercolor="#000000"
     borderopacity="0.25"
     inkscape:showpageshadow="2"
     inkscape:pageopacity="0.0"
     inkscape:pagecheckerboard="0"
     inkscape:deskcolor="#d1d1d1"
     showgrid="false"
     inkscape:zoom="0.52833333"
     inkscape:cx="483.59621"
     inkscape:cy="681.38801"
     inkscape:window-width="1600"
     inkscape:window-height="837"
     inkscape:window-x="-8"
     inkscape:window-y="-8"
     inkscape:window-maximized="1"
     inkscape:current-layer="g65" />
  <g
     inkscape:groupmode="layer"
     inkscape:label="Image"
     id="g65">
    <path
       style="fill:#eaa221;fill-opacity:1"
       d="m 335.55768,1019.0571 c -4.93622,-2.1501 -8.45042,-7.0853 -8.45042,-11.8675 0,-4.2159 80.3898,-253.6676 84.02309,-260.72587 2.12727,-4.13256 7.27137,-9.17962 11.47691,-11.26041 6.09245,-3.01438 111.77218,-36.73959 115.12543,-36.73959 10.37821,0 16.90304,11.7014 11.48199,20.59139 -1.03681,1.70026 -13.89948,19.62341 -28.58371,39.82922 -14.68424,20.2058 -26.41544,37.03968 -26.06936,37.40861 0.34609,0.36893 15.09126,11.24578 32.76706,24.17078 17.67579,12.92497 32.96872,24.63557 33.9843,26.02347 2.66079,3.6362 3.2597,8.9269 1.49001,13.1623 -1.2905,3.0887 -16.36226,14.3908 -107.7988,80.8374 -58.4642,42.4857 -107.76873,77.8609 -109.56561,78.6117 -4.01326,1.6769 -5.95453,1.6687 -9.88089,-0.042 z m 111.63164,-85.4799 c 56.32987,-40.9126 103.4486,-75.366 104.70829,-76.5631 1.30886,-1.2438 2.04182,-2.8242 1.71039,-3.6878 -0.31897,-0.8313 -17.17283,-13.5546 -37.45303,-28.27401 l -36.87308,-26.76265 16.09163,-22.16295 c 8.8504,-12.18963 22.77852,-31.35642 30.95137,-42.59286 8.17285,-11.23645 14.72982,-21.08822 14.57105,-21.89282 -0.8069,-4.08905 -2.83267,-3.59372 -56.33789,13.77535 -29.12293,9.454 -54.84632,18.08913 -57.16308,19.18918 -2.31676,1.10005 -5.12147,3.47117 -6.23268,5.26915 -1.94218,3.14252 -84.05503,254.32311 -84.05503,257.12171 0,2.2398 3.16316,3.4538 5.55557,2.1322 1.15971,-0.6407 48.19663,-34.6388 104.52649,-75.5514 z m -94.08206,55.1725 c 0,-1.0701 72.05091,-223.33899 74.5724,-230.04738 0.88095,-2.34378 2.48768,-4.73556 3.5705,-5.31507 1.08282,-0.57951 21.75817,-7.49256 45.94522,-15.36234 36.77442,-11.96535 43.74816,-13.96088 42.58245,-12.18493 -0.7667,1.16806 -12.9772,18.06924 -27.13444,37.55817 -14.15724,19.48892 -25.90439,35.91392 -26.10479,36.5 -0.20039,0.58607 16.04557,12.92738 36.10215,27.42513 20.05658,14.49772 36.44334,26.64772 36.41501,27.00002 -0.0387,0.482 -173.37157,126.7613 -183.94746,134.0124 -1.10057,0.7546 -2.00104,0.9409 -2.00104,0.414 z m 498.44356,30.3045 C 848.06292,1017.5351 637.38815,864.814 632.2348,860.069 c -1.85485,-1.7079 -4.43796,-5.3553 -5.74023,-8.1053 l -2.36777,-5 -0.006,-61.49997 c -0.006,-59.24201 0.0656,-61.61754 1.94601,-64.70145 2.31308,-3.79359 6.7235,-6.29855 11.08969,-6.29855 7.27796,0 8.56492,1.40925 36.83985,40.3404 14.84357,20.43778 27.6328,38.02976 28.42052,39.09328 1.36031,1.83661 3.05772,0.75231 33.81132,-21.59869 17.8085,-12.9428 33.36202,-24.05046 34.56336,-24.68368 5.61668,-2.96052 14.76891,-0.0795 17.64513,5.55447 0.78457,1.53682 19.48142,58.38608 41.54855,126.33169 26.44843,81.4359 40.12203,124.947 40.12203,127.6733 0,4.8905 -3.56324,9.7909 -8.67119,11.9252 -4.01219,1.6764 -5.95235,1.6675 -9.88525,-0.045 z m 8.55644,-12.0585 c 0,-2.2502 -80.05554,-247.89396 -81.26305,-249.34893 -0.60348,-0.72715 -1.82887,-1.13076 -2.72308,-0.89692 -0.89422,0.23385 -17.95468,12.30263 -37.91213,26.81953 -19.95746,14.51689 -36.58226,26.1771 -36.94401,25.91157 -0.36175,-0.26553 -14.32978,-19.31501 -31.04006,-42.33217 -16.71029,-23.01716 -31.00352,-42.08775 -31.76274,-42.37909 -0.75922,-0.29134 -2.04967,0.0257 -2.86766,0.70461 -1.2856,1.06695 -1.48727,9.23337 -1.48727,60.22572 0,58.50598 0.0177,59.02288 2.14947,62.81588 1.73633,3.0894 22.71968,18.7804 109.17059,81.6361 58.86161,42.7965 107.94945,78.3338 109.08409,78.9719 2.36713,1.3312 5.59585,0.1033 5.59585,-2.1282 z m -115.042,-89.1345 c -54.1519,-39.3359 -99.02492,-72.0753 -99.71782,-72.7542 -0.98562,-0.9657 -1.20328,-11.633 -1,-49.0106 l 0.25982,-47.77625 26.88521,37.09634 c 14.78687,20.40298 27.21461,37.29991 27.6172,37.54873 0.40258,0.24881 17.10424,-11.45133 37.11478,-26.00031 20.01055,-14.54898 36.60781,-26.45856 36.88281,-26.46572 0.68594,-0.0179 71.35656,217.94131 70.83419,218.46371 -0.23,0.23 -44.72429,-31.7658 -98.87619,-71.1017 z m -176.18239,-82.2407 -3.72439,-2.6568 -0.0256,-57.27594 -0.0256,-57.27598 3.75,-5.02377 3.75,-5.02377 0.26366,32.54974 c 0.14502,17.90236 0.14502,47.1328 0,64.95653 l -0.26366,32.40679 z m -17.98829,-12.98282 -3.71268,-2.67395 -0.0107,-38.5 -0.0107,-38.5 4.47336,-5.92426 4.47335,-5.92426 v 47.17426 c 0,25.94584 -0.3375,47.14004 -0.75,47.09821 -0.4125,-0.0418 -2.42071,-1.27933 -4.46268,-2.75 z m -18.03732,-13.30448 -3.75,-3.06346 v -18.99406 -18.99405 l 4.14489,-5.90895 c 2.27969,-3.24992 4.30469,-5.90895 4.5,-5.90895 0.19531,0 0.35511,12.6 0.35511,28 0,15.4 -0.3375,27.98491 -0.75,27.96647 -0.4125,-0.0184 -2.4375,-1.41209 -4.5,-3.097 z M 515.8364,796.98998 c -2.9269,-2.23908 -4.49804,-4.10899 -4.06498,-4.83799 0.38824,-0.65354 2.53512,-3.66326 4.77086,-6.68826 l 4.06498,-5.5 0.30226,5.25 c 0.16624,2.8875 0.16624,7.53959 0,10.33799 l -0.30226,5.08798 z m 185.90954,-24.76819 c -2.46551,-3.43603 -4.32137,-6.4087 -4.12413,-6.60594 0.33889,-0.3389 16.06442,4.59106 17.79764,5.57957 0.4467,0.25477 -0.6783,1.57698 -2.5,2.93824 -6.50481,4.86071 -6.28715,4.89796 -11.17351,-1.91187 z m 4.38781,-13.21761 c -18.12495,-6.07314 -18.53582,-6.27343 -21.77552,-10.61519 -3.90697,-5.23603 -5.78288,-8.36211 -4.60074,-7.66682 0.46737,0.27489 12.92012,4.40431 27.67276,9.17649 l 26.82299,8.67669 -3.82299,2.74907 c -2.10264,1.51198 -4.27299,3.0012 -4.82299,3.30937 -0.55,0.30817 -9.31308,-2.22515 -19.47351,-5.62961 z m -0.28153,-18.47979 -35.75505,-11.74916 -4.09657,-5.7208 c -2.25312,-3.14644 -3.93835,-5.84636 -3.74496,-5.99983 0.42087,-0.33398 87.76433,27.9885 88.46054,28.68471 0.50869,0.5087 -7.60232,6.7933 -8.55592,6.62933 -0.30415,-0.0523 -16.64277,-5.38221 -36.30804,-11.84425 z m -0.22686,-18.55668 -52.9819,-17.32097 -4.50132,-6.28799 c -2.47572,-3.45839 -3.83386,-6.03543 -3.01809,-5.72675 0.81576,0.30868 28.93321,9.45543 62.48321,20.32612 33.55,10.87068 61.14412,19.88817 61.32028,20.03885 0.48207,0.41239 -8.55461,6.48021 -9.50046,6.37924 -0.4509,-0.0481 -24.66168,-7.88197 -53.80172,-17.4085 z m 80.9819,-35.94372 c -18.35147,-5.20511 -110.12622,-35.81701 -111.7294,-37.26787 -6.7257,-6.08667 -5.99396,-18.42657 1.32493,-22.34352 1.21141,-0.64832 22.27299,-7.69709 46.80352,-15.66392 24.53052,-7.96684 44.77088,-14.64754 44.97858,-14.84601 0.20769,-0.19847 -5.12044,-17.32948 -11.8403,-38.06891 -6.71986,-20.73943 -12.44639,-39.11591 -12.72562,-40.83663 -0.71613,-4.41295 1.96765,-10.12362 5.87811,-12.50777 3.27648,-1.99761 4.67236,-2.01819 137.10984,-2.02189 147.63478,-0.004 137.86658,-0.43697 141.34498,6.26319 2.3152,4.45977 2.1742,11.14964 -0.3061,14.52136 -2.3123,3.14329 -213.51264,157.08677 -220.52281,160.7386 -5.94297,3.09588 -13.79785,3.88207 -20.31573,2.03337 z m 15.5,-10.95542 c 1.375,-0.68621 50.65,-36.23701 109.5,-79.00177 112.87814,-82.02554 111.67334,-81.06589 104.97204,-83.61371 -1.7573,-0.66813 -46.41735,-0.92295 -131.5308,-0.75048 -114.82599,0.23266 -129.03892,0.43 -130.4196,1.81079 -1.39942,1.39953 -0.18483,5.74784 12.53572,44.87868 7.74691,23.83095 13.71569,43.67683 13.26396,44.10194 -0.45172,0.42512 -22.64632,7.8342 -49.32132,16.46462 -26.675,8.63043 -49.10875,16.27452 -49.85278,16.98688 -3.8981,3.73218 -2.08897,4.49078 55.60824,23.31767 58.20538,18.99271 58.64469,19.09913 65.24454,15.80538 z m -53.31668,-22.06962 c -24.09918,-7.88439 -44.00129,-14.51986 -44.22692,-14.74548 -0.22562,-0.22563 19.60439,-6.88437 44.06669,-14.79721 24.4623,-7.91284 44.47789,-14.86072 44.47909,-15.43975 0.001,-0.57903 -6.10522,-19.88387 -13.5698,-42.89965 -7.46459,-23.01578 -13.38866,-42.03018 -13.16461,-42.25424 0.22405,-0.22405 51.90658,-0.29296 114.85006,-0.15313 l 114.4427,0.25424 -99.10327,72 c -58.74772,42.6811 -100.09155,72.07543 -101.53026,72.18524 -1.33485,0.10188 -22.14451,-6.26563 -46.24368,-14.15002 z m -335.1199,29.14435 c 1.60395,-7.37629 -1.47953,-6.01521 55.75912,-24.61258 l 53.54906,-17.39859 6.57575,1.77997 c 3.61666,0.97899 6.77433,2.1013 7.01705,2.49402 0.35844,0.57998 -67.69492,23.19697 -113.27839,37.64716 l -10.31398,3.26959 z m -33.19947,-4.65114 C 361.56247,664.68556 171.42052,525.49589 169.76935,523.25202 c -2.48098,-3.37158 -2.62225,-10.06097 -0.30667,-14.52136 3.50123,-6.74423 -6.92397,-6.31492 146.36516,-6.02731 l 138.77974,0.26038 4.81072,3 c 4.10073,2.55725 9.91956,10.01027 39.42705,50.5 19.03898,26.125 35.22035,49.21937 35.9586,51.32081 2.91427,8.29561 -3.4692,17.67919 -12.02682,17.67919 -2.76758,0 -19.96228,-5.10276 -49.06976,-14.56211 -24.64508,-8.00916 -44.93781,-14.42166 -45.09497,-14.25 -0.15716,0.17166 -5.97071,17.83838 -12.91899,39.25939 -6.94828,21.421 -13.40908,39.80457 -14.35733,40.85238 -5.43139,6.00161 -12.70453,6.25565 -20.86487,0.72877 z m 12.25797,-6.79374 c 0.61706,-0.40408 7.30257,-19.85969 14.8567,-43.23469 7.55413,-23.375 14.03889,-42.82963 14.41059,-43.2325 0.37169,-0.40288 22.79177,6.45962 49.82241,15.25 27.03065,8.79037 49.83769,15.9825 50.68232,15.9825 0.84463,0 1.99515,-0.8585 2.5567,-1.90778 1.15802,-2.16378 1.55325,-1.58773 -42.21265,-61.52519 -21.64705,-29.64567 -26.93788,-36.29465 -30.23799,-38 -3.97621,-2.05474 -4.78871,-2.06864 -136.62904,-2.33827 -88.53108,-0.18105 -133.52256,0.0685 -135.31638,0.75049 -6.73348,2.56006 -7.92863,1.6068 103.36668,82.44711 57.98169,42.1155 105.90669,76.56675 106.5,76.55833 0.59331,-0.008 1.5836,-0.34592 2.20066,-0.75 z m -98.64921,-80.4975 -92.5273,-67.23719 123.49558,-0.25394 c 116.5934,-0.23975 123.59173,-0.15592 125.21611,1.5 3.70936,3.78137 54.70457,74.77181 53.91129,75.04991 -0.46433,0.16279 -20.23165,-6.02471 -43.92737,-13.75 -23.69572,-7.72528 -43.44717,-14.04597 -43.8921,-14.04597 -0.44492,0 -7.06627,19.35 -14.71409,43 -7.64783,23.65 -14.15932,42.99423 -14.46999,42.98719 -0.31066,-0.007 -42.20212,-30.26955 -93.09213,-67.25 z m 126.87806,69.17623 1.72898,-5.08657 36.24616,-11.81113 36.24616,-11.81112 6.46397,2.10159 c 3.55518,1.15587 6.46396,2.37249 6.46396,2.7036 0,0.53445 -86.59792,28.99021 -88.22438,28.99021 -0.35961,0 0.12421,-2.28896 1.07515,-5.08658 z m 5.14923,-15.85533 c 0,-0.386 0.7086,-2.78145 1.57468,-5.32323 l 1.57467,-4.62142 18.78173,-6.03945 18.78172,-6.03946 6.8936,2.37111 c 5.18186,1.78233 6.44459,2.55509 5.08531,3.11208 -6.02202,2.46766 -52.69171,17.11767 -52.69171,16.54037 z m 7,-20.61321 c 0,-0.423 0.73601,-3.10398 1.63557,-5.95773 l 1.63557,-5.18863 7.59093,2.41057 c 4.175,1.32581 7.74254,2.56218 7.92785,2.74749 0.18531,0.18531 -3.40411,1.57439 -7.9765,3.08683 -4.57238,1.51245 -8.87592,2.95705 -9.56342,3.21023 -0.6875,0.25319 -1.25,0.11424 -1.25,-0.30876 z m 221.16573,-5.69488 c 1.26606,-1.7875 18.61524,-25.68377 38.55375,-53.10283 35.40371,-48.6865 36.27727,-49.78608 37.33894,-47 2.88068,7.55961 4.35055,5.01247 -30.93532,53.60806 l -33.06934,45.54301 -6.22105,2.10088 c -8.11379,2.74007 -8.38296,2.68548 -5.66698,-1.14912 z m 31.09,-13 c 2.93395,-3.9875 15.42827,-21.14589 27.76516,-38.12976 l 22.43069,-30.87977 1.22013,2.9902 c 2.96557,7.26781 3.68954,5.87971 -19.95946,38.26933 l -22.26931,30.5 -5.97147,2.19056 c -3.28431,1.2048 -6.55168,2.2173 -7.26083,2.25 -0.70915,0.0327 1.11114,-3.20306 4.04509,-7.19056 z m 23.74427,-2.40154 c 0,-0.29478 31.27738,-43.66469 32.64416,-45.26513 0.66991,-0.78443 1.49302,0.72209 2.84016,5.19832 l 1.34783,4.47849 -11.64027,15.98491 -11.64026,15.98491 -6.77581,1.99541 c -3.7267,1.09747 -6.77581,1.82786 -6.77581,1.62309 z m 28.6723,-9.66014 c 2.2692,-3.77619 10.60249,-14.68832 11.21706,-14.68832 0.66008,0 4.35244,10.17117 3.83136,10.55409 -1.58852,1.16736 -15.57452,5.00971 -15.04842,4.13423 z m -186.1723,-47.90926 c -18.7,-25.76212 -35.95599,-49.55021 -38.34665,-52.86242 l -4.34666,-6.02222 5.78335,0.30279 5.78334,0.30279 32.8565,45.18769 32.85649,45.1877 -0.29318,7.37194 -0.29319,7.37194 z m 57.4416,35.23291 c -4.48647,-1.29158 -6.88037,-2.99288 -8.43125,-5.99195 -1.28691,-2.48861 -1.51035,-10.17713 -1.51035,-51.97036 v -49.04966 h -49.5 c -29.9524,0 -49.5,-0.36833 -49.5,-0.93271 0,-0.72827 69.31831,-214.90772 83.08906,-256.72823 3.42245,-10.39368 5.91559,-13.66095 11.76042,-15.41211 5.48728,-1.64403 12.20634,0.77261 14.98749,5.39054 1.05416,1.75038 20.42209,60.19362 43.03985,129.87387 37.90309,116.77097 41.12146,127.22449 41.10122,133.5 -0.0147,4.56336 -0.64571,8.12771 -1.91343,10.80864 -2.70794,5.72666 -69.06736,96.4885 -72.06461,98.56501 -3.06464,2.1232 -7.64498,2.92962 -11.0584,1.94696 z m 39.5441,-56.87158 c 18.50593,-25.49778 34.06726,-47.46458 34.58072,-48.8151 0.51347,-1.35052 0.93358,-4.11349 0.93358,-6.13993 0,-5.38192 -81.94333,-257.08466 -84.06513,-258.22022 -1.05711,-0.56574 -2.22794,-0.44839 -3.22858,0.32361 -1.19273,0.9202 -79.31304,238.51438 -82.35096,250.46125 l -0.57215,2.25 h 47.10841 47.10841 v 50.9349 c 0,31.55293 0.38071,51.93624 1.00049,53.56638 2.40637,6.32924 3.97013,4.57237 39.48521,-44.36089 z m -29.4857,-23.05821 v -47.08218 h -46.10699 c -36.87609,0 -46.00936,-0.25441 -45.61936,-1.27074 0.2682,-0.69891 16.37498,-50.19027 35.79286,-109.9808 19.41787,-59.79053 35.3991,-108.6062 35.51384,-108.47926 1.18888,1.31527 75.41932,232.62143 75.41836,235.00779 -10e-4,2.63441 -5.02319,10.13205 -27.5,41.05519 l -27.49871,37.83218 z m -60,25.15463 c -14.575,-20.08711 -26.85986,-37.13285 -27.29969,-37.87942 -0.63307,-1.07457 0.32924,-1.35739 4.61858,-1.35739 h 5.41827 l 22.17367,30.48942 22.17368,30.48943 -0.29226,7.38999 -0.29225,7.38999 z m 10.5,-15.46612 c -8.8,-12.142 -16.15,-22.45758 -16.33333,-22.92352 -0.18334,-0.46595 2.06666,-0.84703 5,-0.84685 l 5.33333,3.2e-4 11.29093,15.56262 11.29093,15.56262 -0.29093,7.36058 -0.29093,7.36058 z m 10.24444,-15.77069 -5.68861,-8 h 5.97209 5.97208 v 8 c 0,4.4 -0.12756,8 -0.28348,8 -0.15591,0 -2.84335,-3.6 -5.97208,-8 z"
       id="path177" />
  </g>
</svg>
