<?xml version="1.0" encoding="UTF-8" standalone="no"?>
<svg
   width="20"
   height="20"
   viewBox="0 0 20 20"
   fill="none"
   version="1.1"
   id="svg1253"
   sodipodi:docname="icon-checkmark.svg"
   inkscape:version="1.2.1 (9c6d41e410, 2022-07-14)"
   xmlns:inkscape="http://www.inkscape.org/namespaces/inkscape"
   xmlns:sodipodi="http://sodipodi.sourceforge.net/DTD/sodipodi-0.dtd"
   xmlns="http://www.w3.org/2000/svg"
   xmlns:svg="http://www.w3.org/2000/svg">
  <defs
     id="defs1257" />
  <sodipodi:namedview
     id="namedview1255"
     pagecolor="#ffffff"
     bordercolor="#000000"
     borderopacity="0.25"
     inkscape:showpageshadow="2"
     inkscape:pageopacity="0.0"
     inkscape:pagecheckerboard="0"
     inkscape:deskcolor="#d1d1d1"
     showgrid="false"
     inkscape:zoom="31.7"
     inkscape:cx="9.9842271"
     inkscape:cy="10"
     inkscape:window-width="1600"
     inkscape:window-height="837"
     inkscape:window-x="-8"
     inkscape:window-y="-8"
     inkscape:window-maximized="1"
     inkscape:current-layer="svg1253" />
  <path
     d="M 10,20 C 15.5228,20 20,15.5228 20,10 20,4.47715 15.5228,0 10,0 4.47715,0 0,4.47715 0,10 0,15.5228 4.47715,20 10,20 Z"
     fill="#0779d0"
     id="path1249"
     style="fill:#eaa211;fill-opacity:1" />
  <path
     d="m 14.6095,6.25813 c 0.3307,-0.3582 0.8523,-0.34156 1.1651,0.03716 0.3128,0.37872 0.2983,0.97612 -0.0325,1.33432 L 9.53686,14.3508 C 9.20373,14.7116 8.67749,14.6917 8.36588,14.3065 L 5.21957,10.4169 C 4.91023,10.0345 4.93017,9.4373 5.2641,9.08305 5.59803,8.7288 6.1195,8.75163 6.42883,9.13404 L 9.00921,12.324 Z"
     fill="#ffffff"
     id="path1251" />
</svg>
