<?xml version="1.0" encoding="UTF-8" standalone="no"?>
<svg
   width="132"
   height="72"
   fill="none"
   version="1.1"
   id="svg5323"
   sodipodi:docname="pointing-arrow.svg"
   inkscape:version="1.2.1 (9c6d41e410, 2022-07-14)"
   xmlns:inkscape="http://www.inkscape.org/namespaces/inkscape"
   xmlns:sodipodi="http://sodipodi.sourceforge.net/DTD/sodipodi-0.dtd"
   xmlns="http://www.w3.org/2000/svg"
   xmlns:svg="http://www.w3.org/2000/svg">
  <sodipodi:namedview
     id="namedview5325"
     pagecolor="#ffffff"
     bordercolor="#000000"
     borderopacity="0.25"
     inkscape:showpageshadow="2"
     inkscape:pageopacity="0.0"
     inkscape:pagecheckerboard="0"
     inkscape:deskcolor="#d1d1d1"
     showgrid="false"
     inkscape:zoom="8.6439394"
     inkscape:cx="53.274321"
     inkscape:cy="35.978966"
     inkscape:window-width="1600"
     inkscape:window-height="837"
     inkscape:window-x="-8"
     inkscape:window-y="-8"
     inkscape:window-maximized="1"
     inkscape:current-layer="svg5323" />
  <g
     clip-path="url(#A)"
     id="g5316"
     style="fill:#eaa221;fill-opacity:1">
    <path
       fill-rule="evenodd"
       d="M130.487 2.11189c-8.493-2.918186-19.74-2.667609-31.9171-.13593C86.3564 4.51518 73.0424 9.38344 60.318 15.8821S35.4133 30.5333 25.4846 39.6687c-8.4787 7.8014-15.371 16.371-19.52609 25.2932L3.46765 53.2193c-.1719-.8104-.96821-1.328-1.7786-1.1561s-1.327996.9682-1.156094 1.7786L4.0281 70.3189c.044.2233.13837.4341.27506.6154.12346.1638.28144.3036.46804.4071.15649.087.32615.1447.50066.1716.16145.0251.32292.023.4788-.0035.03025-.0051.06043-.0112.09049-.0182l14.99995-3.5c.8068-.1883 1.3082-.9949 1.1199-1.8016s-.9948-1.3082-1.8016-1.12L7.92533 67.9244c3.81357-9.0388 10.73227-17.8973 19.59057-26.048 9.6964-8.9217 21.6417-16.9258 34.1666-23.3226S87.2692 7.38955 99.1806 4.91315c11.9474-2.48394 22.5754-2.6292 30.3324.03594.783.2692 1.636-.14771 1.906-.93118s-.148-1.63682-.932-1.90602z"
       fill="#000"
       id="path5314"
       style="fill:#eaa221;fill-opacity:1" />
  </g>
  <defs
     id="defs5321">
    <clipPath
       id="A">
      <path
         fill="#fff"
         d="M0 0h132v72H0z"
         id="path5318" />
    </clipPath>
  </defs>
</svg>
