<?xml version="1.0" encoding="UTF-8" standalone="no"?>
<!-- Created with Inkscape (http://www.inkscape.org/) -->

<svg
   width="395.81665mm"
   height="395.81668mm"
   viewBox="0 0 395.81665 395.81668"
   version="1.1"
   id="svg1411"
   xml:space="preserve"
   xmlns:inkscape="http://www.inkscape.org/namespaces/inkscape"
   xmlns:sodipodi="http://sodipodi.sourceforge.net/DTD/sodipodi-0.dtd"
   xmlns="http://www.w3.org/2000/svg"
   xmlns:svg="http://www.w3.org/2000/svg"><sodipodi:namedview
     id="namedview1413"
     pagecolor="#ffffff"
     bordercolor="#000000"
     borderopacity="0.25"
     inkscape:showpageshadow="2"
     inkscape:pageopacity="0.0"
     inkscape:pagecheckerboard="0"
     inkscape:deskcolor="#d1d1d1"
     inkscape:document-units="mm"
     showgrid="false" /><defs
     id="defs1408" /><g
     id="g1425"
     transform="matrix(0,0.03527778,0.03527778,0,1.3493796e-4,-1.5105747e-4)"><path
       d="m 3610.58,1853.36 h 4293.24 c 953.6,0 1726.64,773.05 1726.64,1726.64 v 4293.24 c 0,953.6 -773.04,1726.64 -1726.64,1726.64 H 3610.58 c -953.59,0 -1726.64,-773.04 -1726.64,-1726.64 V 3580 c 0,-953.59 773.05,-1726.64 1726.64,-1726.64"
       style="display:inline;fill:#ececec;fill-opacity:1;fill-rule:nonzero;stroke:none"
       id="path1431" /><path
       d="m 8324.65,5726.62 c 0,-1417.97 -1149.48,-2567.45 -2567.45,-2567.45 -1417.97,0 -2567.45,1149.48 -2567.45,2567.45 0,1417.96 1149.48,2567.45 2567.45,2567.45 1417.97,0 2567.45,-1149.49 2567.45,-2567.45"
       style="display:inline;fill:#eaa221;fill-opacity:1;fill-rule:nonzero;stroke:none"
       id="path1845" /><path
       d="m 7271.2,6086.56 -738.4,738.46 c -145.54,145.54 -364.48,189.11 -554.76,110.35 -190.22,-78.79 -314.22,-264.39 -314.22,-470.27 V 6235.66 H 4603.14 c -281.13,0 -509.02,-227.89 -509.02,-509.02 0,-281.13 227.89,-509.02 509.02,-509.02 h 1060.68 v -229.44 c 0,-205.88 124,-391.49 314.22,-470.28 63.02,-26.09 129.13,-38.77 194.7,-38.77 132.44,0 262.68,51.76 360.06,149.13 l 738.4,738.46 c 198.78,198.78 198.78,521.06 0,719.84"
       style="display:inline;fill:#ffffff;fill-opacity:1;fill-rule:nonzero;stroke:none"
       id="path1847" /></g></svg>
