<?xml version="1.0" encoding="UTF-8" standalone="no"?>
<!-- Created with Inkscape (http://www.inkscape.org/) -->

<svg
   width="1128.8888mm"
   height="705.5556mm"
   viewBox="0 0 1128.8888 705.5556"
   version="1.1"
   id="svg14268"
   xml:space="preserve"
   inkscape:version="1.2.1 (9c6d41e410, 2022-07-14)"
   sodipodi:docname="page6.svg"
   inkscape:dataloss="true"
   inkscape:export-filename="page6.svg"
   inkscape:export-xdpi="96"
   inkscape:export-ydpi="96"
   xmlns:inkscape="http://www.inkscape.org/namespaces/inkscape"
   xmlns:sodipodi="http://sodipodi.sourceforge.net/DTD/sodipodi-0.dtd"
   xmlns="http://www.w3.org/2000/svg"
   xmlns:svg="http://www.w3.org/2000/svg"><sodipodi:namedview
     id="namedview14270"
     pagecolor="#ffffff"
     bordercolor="#000000"
     borderopacity="0.25"
     inkscape:showpageshadow="2"
     inkscape:pageopacity="0.0"
     inkscape:pagecheckerboard="0"
     inkscape:deskcolor="#d1d1d1"
     inkscape:document-units="mm"
     showgrid="false"
     inkscape:zoom="0.1412002"
     inkscape:cx="1745.7483"
     inkscape:cy="1742.2072"
     inkscape:window-width="1600"
     inkscape:window-height="837"
     inkscape:window-x="-8"
     inkscape:window-y="-8"
     inkscape:window-maximized="1"
     inkscape:current-layer="g14282" /><defs
     id="defs14265"><clipPath
       clipPathUnits="userSpaceOnUse"
       id="clipPath15024"><path
         d="m 1538.91,3194.1 h 13485 v 13485.3 h -13485 z"
         id="path15022" /></clipPath></defs><g
     id="g14282"
     transform="matrix(-0.05738854,0,0,-0.05201982,859.75659,868.62607)"><g
       id="g15018"><g
         id="g15020"
         clip-path="url(#clipPath15024)"
         inkscape:label="g15020"><path
           d="M 15023.9,3194.2 H 1538.91 V 16679.4 H 15023.9 V 3194.2"
           style="fill:#ffffff;fill-opacity:1;fill-rule:nonzero;stroke:none"
           id="path15026" /><path
           d="m 12962.4,17541.9 c 93.2,-90.8 175,-205.3 299.3,-244 220.7,-68.6 422.9,130.8 630.7,232 360.2,175.3 846,16.3 1032.7,-338.1 130.5,-247.7 119,-542 146,-820.6 27,-278.7 119.7,-585.4 366.9,-716.8 282.2,-149.8 634,-6.1 945.4,-77.7 378.9,-87.2 614.7,-472.7 713.1,-848.9 149.3,-571.5 61.6,-1227 -329.4,-1669.8 -390.9,-442.8 -1110.1,-600 -1599.9,-269.8 -371.3,250.4 -581.8,731 -1008.4,867.3 -473.8,151.4 -960.6,-196.8 -1457.7,-212 -510.6,-15.5 -980.9,338 -1224.4,787.1 -243.6,449 -294.8,977.7 -282.3,1488.4 11.8,479.8 -85.6,1284.7 253.8,1673 386,441.7 1065.8,586.8 1514.2,149.9"
           style="fill:#f9e49f;fill-opacity:1;fill-rule:nonzero;stroke:none"
           id="path15030" /><path
           d="m 13458.5,10592.9 c -769.7,-227.2 -1244.1,-515.1 -1376.3,-677.3 -132.1,-162.1 -575.2,-853.2 -575.2,-853.2 0,0 733.1,439.8 940.6,510.6 207.5,70.7 1010.9,1019.9 1010.9,1019.9"
           style="fill:#283675;fill-opacity:1;fill-rule:nonzero;stroke:none"
           id="path15096" /><path
           d="m 13414.1,10564 c -715.4,-217.1 -1184.6,-491.5 -1320.2,-657.9 -108.6,-133.2 -432.8,-632.5 -539.7,-798.1 175.3,104 712.8,419.3 888.6,479.2 177.6,60.5 818.1,798.2 971.3,976.8 z M 11507,9047.4 c -4,0 -7.9,1.6 -10.8,4.6 -4.8,5 -5.6,12.6 -1.8,18.5 4.4,6.9 445.1,693.6 576.2,854.6 141.5,173.6 634.8,461.2 1383.7,682.2 6.3,1.9 13.2,-0.6 16.8,-6.2 3.6,-5.5 3.1,-12.8 -1.1,-17.9 -32.9,-38.8 -808.5,-953.2 -1017.6,-1024.4 -203.6,-69.4 -930.4,-504.9 -937.7,-509.3 -2.4,-1.4 -5.1,-2.1 -7.7,-2.1"
           style="fill:#283675;fill-opacity:1;fill-rule:nonzero;stroke:none"
           id="path15098" /><path
           d="m 13590.9,10129.2 c -507.1,-291.3 -1013.2,-673.3 -1148.3,-967.9 -135.2,-294.6 -331,-884.5 -390.4,-1031 -59.4,-146.5 693.3,409.4 924.2,656 230.9,246.5 507.4,935.5 614.5,1342.9"
           style="fill:#283675;fill-opacity:1;fill-rule:nonzero;stroke:none"
           id="path15100" /><path
           d="m 13567,10098 c -453.3,-263.9 -973.9,-644.5 -1110.8,-943 -90.6,-197.5 -208.4,-527.7 -294.5,-768.9 -42.5,-119.1 -76,-213.1 -95.6,-261.4 -0.6,-1.5 -1,-2.8 -1.4,-3.8 82.4,5 683,443.1 900.7,675.6 225.7,241 492.7,907.2 601.6,1301.5 z M 12063.9,8116.6 h 0.1 z m -2.7,-25.5 c -7.4,0 -12.4,1.8 -16.3,4.3 -6.9,4.4 -16.8,15.4 -6.6,40.5 19.3,47.8 52.8,141.6 95.2,260.3 86.2,241.7 204.3,572.7 295.4,771.3 143.1,311.9 690.2,708 1154.6,974.7 5.2,3 11.7,2.6 16.6,-1.1 4.8,-3.7 6.9,-9.9 5.3,-15.7 -102.9,-391.7 -382.3,-1097.6 -618.1,-1349.4 -99.5,-106.3 -304.3,-278.9 -521.7,-439.7 -103.2,-76.3 -195.2,-139.4 -266.1,-182.5 -81.1,-49.2 -118.4,-62.7 -138.3,-62.7"
           style="fill:#283675;fill-opacity:1;fill-rule:nonzero;stroke:none"
           id="path15102" /><path
           d="m 14103.7,10445.8 c -272.2,-407.7 -517.1,-1002.6 -417.7,-1248.5 99.5,-245.9 424.4,-840.4 456.5,-911.5 32,-71 41,731 62.7,923.2 21.7,192.2 99.1,728.7 -101.5,1236.8"
           style="fill:#283675;fill-opacity:1;fill-rule:nonzero;stroke:none"
           id="path15104" /><path
           d="m 14100.2,10413.3 c -267.3,-409.3 -493.5,-979.8 -400.3,-1210.3 69.7,-172.2 253.6,-522.2 363.4,-731.3 34.8,-66.2 62.7,-119.2 79.1,-151.7 10.7,79.1 19.1,295.3 26.1,474.7 6.8,175.1 13.3,340.5 21.8,416 1.1,10.2 2.4,21.4 3.9,33.5 24.7,211 81.9,699.6 -94,1169.1 z m 56,-2121.3 h 0.1 z m -9.7,-25.6 c -4.7,0 -12.6,1.9 -17.7,13.3 -9.3,20.7 -45.8,90.1 -92,178.1 -110.2,209.5 -294.5,560.3 -364.7,733.9 -60,148.4 4.6,394.2 69.3,574.3 81.2,226 208.8,476.9 349.9,688.2 3.1,4.6 8.5,7.1 14,6.6 5.6,-0.6 10.3,-4.3 12.4,-9.5 191.3,-484.6 131.7,-993.3 106.3,-1210.6 -1.5,-12 -2.8,-23.2 -3.9,-33.4 -8.4,-74.3 -14.8,-239.2 -21.6,-413.8 -19.5,-500.6 -26.2,-522.4 -48.9,-526.8 -0.7,-0.1 -1.8,-0.3 -3.1,-0.3"
           style="fill:#283675;fill-opacity:1;fill-rule:nonzero;stroke:none"
           id="path15106" /><path
           d="m 14042.3,11160.2 c -643.6,212.8 -1019.7,355.2 -1364.7,193.4 -345,-161.7 -829.2,-554.6 -895.2,-615.5 -66.1,-61 920.4,102.9 1112.8,77.4 192.4,-25.6 1147.1,344.7 1147.1,344.7"
           style="fill:#283675;fill-opacity:1;fill-rule:nonzero;stroke:none"
           id="path15108" /><path
           d="m 11806.3,10739.4 c 63.5,-3.6 270.7,20.2 456.1,41.5 265.2,30.6 539.5,62.1 634.8,49.4 164.5,-21.7 919.1,259.9 1100.5,328.8 -24.3,8.1 -48.2,16.1 -71.7,23.9 -575.5,191.2 -922.9,306.7 -1242.1,157.1 -319.1,-149.7 -770.9,-507.8 -877.6,-600.7 z m 19.6,-30 c -41.4,0 -55.3,5.6 -60.1,15.8 -1.3,3 -4.9,13.5 6.4,23.9 76.5,70.6 554.6,456.7 899,618.1 330,154.7 681.7,37.9 1264.2,-155.8 36.3,-12 73.5,-24.4 111.7,-37 6,-2 10.1,-7.5 10.2,-13.8 0.2,-6.4 -3.6,-12.1 -9.5,-14.4 -39.2,-15.2 -960.4,-371.4 -1154.6,-345.6 -91.6,12.2 -376.3,-20.6 -627.4,-49.5 -251.6,-28.9 -377.2,-41.7 -439.9,-41.7"
           style="fill:#283675;fill-opacity:1;fill-rule:nonzero;stroke:none"
           id="path15110" /><path
           d="m 14768.5,11422.7 c -239.2,-494 -165.1,-866 -138.8,-1035.1 26.3,-169 193.6,-708.5 250,-880.9 308.2,458.9 156.7,615.1 253.8,814.8 97.1,199.8 -365,1101.2 -365,1101.2"
           style="fill:#283675;fill-opacity:1;fill-rule:nonzero;stroke:none"
           id="path15112" /><path
           d="m 14768.9,11388.6 c -211.2,-454.5 -155.3,-804.8 -128.2,-974.9 l 3.8,-23.8 c 24.8,-159.4 175.4,-649.2 239.8,-848.9 179.5,276 187,437.9 193.1,568.7 3.6,77.5 6.7,144.5 42.6,218.4 83.5,171.8 -275.4,908.7 -351.1,1060.5 z m 110.8,-1896.9 -2.1,0.2 c -5.7,0.7 -10.4,4.7 -12.2,10.2 -57.6,176.3 -224.1,713.4 -250.5,883.2 l -3.8,23.6 c -28.2,176.6 -86.8,544 143.9,1020.3 2.4,5.2 7.6,8.4 13.3,8.5 5.5,0.2 10.9,-3.1 13.5,-8.1 19,-37.1 464.5,-910.5 365.2,-1114.6 -33.2,-68.4 -36.2,-132.5 -39.6,-206.7 -6.5,-138.6 -14.5,-311.1 -215.3,-610 -2.8,-4.1 -7.5,-6.6 -12.4,-6.6"
           style="fill:#283675;fill-opacity:1;fill-rule:nonzero;stroke:none"
           id="path15114" /><path
           d="m 13637.4,10272.5 c -4.5,0 -9.1,1.2 -13.2,3.8 -11.7,7.3 -15.3,22.7 -8,34.5 503.8,807.5 1180.9,1575.2 1857.6,2106.4 10.8,8.5 26.6,6.6 35.1,-4.3 8.5,-10.8 6.6,-26.5 -4.2,-35.1 -672.4,-527.7 -1345.2,-1290.7 -1846,-2093.5 -4.8,-7.6 -12.9,-11.8 -21.3,-11.8"
           style="fill:#283675;fill-opacity:1;fill-rule:nonzero;stroke:none"
           id="path15116" /><path
           d="m 13248.3,4445.6 c 28.6,180.3 91.6,374.1 248,468.2 169.8,102.2 389.2,51.3 571.1,-27.5 583.3,-252.8 1049.6,-788.7 1164.5,-1413.9 55.1,-299.9 18.9,-640.9 -196.2,-856.9 -156.1,-156.8 -389.3,-224.5 -609.4,-202.7 -966,95.8 -1310,1199.6 -1178,2032.8"
           style="fill:#de7223;fill-opacity:1;fill-rule:nonzero;stroke:none"
           id="path15120" /><path
           d="m 9939.5,15482.5 c -11.63,0 -23.32,4 -32.79,12.3 -20.84,18.1 -23.04,49.6 -4.92,70.5 78.09,89.8 168.51,167.8 268.91,231.8 23.2,14.9 54.1,8.1 69,-15.2 14.9,-23.3 8,-54.2 -15.2,-69.1 -92.3,-58.8 -175.4,-130.6 -247.25,-213.1 -9.89,-11.4 -23.78,-17.2 -37.75,-17.2"
           style="fill:#d22a27;fill-opacity:1;fill-rule:nonzero;stroke:none"
           id="path15124" /><path
           d="m 10576.2,15946.9 c -15.1,0 -30,6.8 -39.8,19.7 -16.7,21.9 -12.5,53.3 9.5,70.1 106.8,81.4 221.9,153 342.2,212.9 24.7,12.3 54.7,2.2 67,-22.5 12.3,-24.7 2.3,-54.7 -22.5,-67 -114.6,-57.1 -224.3,-125.4 -326.1,-203 -9.1,-6.9 -19.7,-10.2 -30.3,-10.2"
           style="fill:#d22a27;fill-opacity:1;fill-rule:nonzero;stroke:none"
           id="path15126" /><path
           d="m 11320.4,16404.4 c -18.6,0 -36.6,10.5 -45.1,28.5 -11.9,24.9 -1.3,54.7 23.6,66.6 l 231.6,110.4 c 24.9,11.8 54.8,1.3 66.7,-23.6 11.9,-25 1.3,-54.8 -23.7,-66.7 l -231.6,-110.4 c -6.9,-3.3 -14.2,-4.8 -21.5,-4.8"
           style="fill:#d22a27;fill-opacity:1;fill-rule:nonzero;stroke:none"
           id="path15128" /><path
           d="m 11910.6,16580.8 c -14.9,0 -29.6,6.6 -39.5,19.2 -16.9,21.8 -13.1,53.2 8.7,70.2 76.6,59.7 160.6,109.7 249.6,148.6 25.3,11 54.8,-0.5 65.8,-25.9 11.1,-25.3 -0.5,-54.7 -25.8,-65.8 -81.4,-35.5 -158.1,-81.2 -228.1,-135.8 -9.1,-7.1 -20,-10.5 -30.7,-10.5"
           style="fill:#d22a27;fill-opacity:1;fill-rule:nonzero;stroke:none"
           id="path15130" /><path
           d="m 11311.2,16064.4 c -13.6,0 -27.1,5.5 -37,16.3 -18.6,20.4 -17.1,52 3.3,70.7 76,69.2 162,125.9 255.6,168.4 25.1,11.5 54.8,0.3 66.2,-24.8 11.4,-25.2 0.3,-54.8 -24.9,-66.2 -84,-38.2 -161.3,-89.1 -229.5,-151.4 -9.6,-8.7 -21.7,-13 -33.7,-13"
           style="fill:#d22a27;fill-opacity:1;fill-rule:nonzero;stroke:none"
           id="path15132" /><path
           d="m 10739.1,15613.4 c -14.5,0 -29,6.3 -38.8,18.5 -17.4,21.4 -14.2,52.9 7.2,70.3 79.3,64.4 166.7,118.4 259.8,160.5 25.1,11.5 54.7,0.3 66.1,-24.9 11.4,-25.1 0.3,-54.8 -24.9,-66.1 -85.2,-38.6 -165.3,-88.1 -237.9,-147.1 -9.3,-7.6 -20.4,-11.2 -31.5,-11.2"
           style="fill:#d22a27;fill-opacity:1;fill-rule:nonzero;stroke:none"
           id="path15134" /><path
           d="m 10409.2,15438.4 c -15,0 -29.9,6.8 -39.7,19.7 -16.8,21.9 -12.6,53.3 9.3,70.1 l 181,138.3 c 21.9,16.8 53.3,12.6 70.1,-9.3 16.8,-21.9 12.6,-53.3 -9.4,-70.1 l -180.9,-138.4 c -9.1,-6.9 -19.8,-10.3 -30.4,-10.3"
           style="fill:#d22a27;fill-opacity:1;fill-rule:nonzero;stroke:none"
           id="path15136" /><path
           d="m 9900.96,15057.3 c -16.49,0 -32.63,8.1 -42.18,23 -14.87,23.3 -8.07,54.2 15.19,69.1 l 231.83,148.3 c 23.3,14.8 54.2,8 69.1,-15.2 14.9,-23.3 8.1,-54.2 -15.2,-69.1 l -231.85,-148.3 c -8.35,-5.3 -17.67,-7.8 -26.89,-7.8"
           style="fill:#d22a27;fill-opacity:1;fill-rule:nonzero;stroke:none"
           id="path15138" /><path
           d="m 10297.3,15008.7 c -13.5,0 -26.9,5.5 -36.7,16.1 -18.8,20.3 -17.5,52 2.8,70.7 89.5,82.6 197.6,147.6 312.5,187.9 26.1,9.1 54.6,-4.6 63.7,-30.7 9.2,-26 -4.5,-54.5 -30.6,-63.7 -102.2,-35.8 -198.2,-93.6 -277.8,-167 -9.6,-8.9 -21.8,-13.3 -33.9,-13.3"
           style="fill:#d22a27;fill-opacity:1;fill-rule:nonzero;stroke:none"
           id="path15140" /><path
           d="m 10801.3,15287.8 c -16.7,0 -33,8.4 -42.5,23.6 -14.6,23.4 -7.5,54.2 16,68.8 l 310.2,193.5 c 23.4,14.6 54.3,7.5 68.9,-15.9 14.6,-23.5 7.4,-54.3 -16,-68.9 l -310.2,-193.5 c -8.2,-5.1 -17.4,-7.6 -26.4,-7.6"
           style="fill:#d22a27;fill-opacity:1;fill-rule:nonzero;stroke:none"
           id="path15142" /><path
           d="m 11256.9,15701.3 c -17,0 -33.5,8.7 -42.9,24.3 -14.2,23.7 -6.5,54.4 17.2,68.6 l 280.4,168.2 c 23.7,14.2 54.4,6.5 68.6,-17.2 14.2,-23.7 6.5,-54.4 -17.2,-68.6 l -280.4,-168.1 c -8,-4.9 -16.9,-7.2 -25.7,-7.2"
           style="fill:#d22a27;fill-opacity:1;fill-rule:nonzero;stroke:none"
           id="path15144" /><path
           d="m 11739,16070.4 c -12.7,0 -25.5,4.8 -35.2,14.5 -19.6,19.5 -19.7,51.2 -0.2,70.8 93.7,94.3 198.8,177.4 312.1,246.9 23.6,14.5 54.4,7.1 68.8,-16.4 14.4,-23.6 7.1,-54.4 -16.5,-68.8 -106.6,-65.4 -205.3,-143.6 -293.5,-232.3 -9.8,-9.8 -22.6,-14.7 -35.5,-14.7"
           style="fill:#d22a27;fill-opacity:1;fill-rule:nonzero;stroke:none"
           id="path15146" /><path
           d="m 11858.1,16360.4 c -17.3,0 -34.2,9 -43.4,25.2 -13.7,24 -5.4,54.5 18.6,68.2 l 253,144.4 c 24,13.7 54.5,5.3 68.2,-18.7 13.7,-23.9 5.3,-54.5 -18.6,-68.2 l -253,-144.4 c -7.8,-4.4 -16.4,-6.5 -24.8,-6.5"
           style="fill:#d22a27;fill-opacity:1;fill-rule:nonzero;stroke:none"
           id="path15148" /><path
           d="m 13230,2955.2 c -7.1,0 -14.2,3 -19.1,8.9 -282.3,334.3 -467.6,739.5 -535.9,1171.7 -46.3,292.9 -0.6,653.6 266.3,787.3 125.4,62.9 289.3,63.2 449.6,1 141.7,-55 263,-147 380.4,-235.9 l 711.4,-539.2 c 119.9,-90.8 243.8,-184.8 385.5,-239.1 154.5,-59.4 310.5,-58.3 428,2.9 12.3,6.3 27.4,1.6 33.8,-10.7 6.3,-12.2 1.6,-27.3 -10.7,-33.7 -130.2,-67.7 -301.2,-69.7 -469,-5.2 -148.3,56.9 -275.2,153 -397.8,246 l -711.4,539.2 c -114.6,86.8 -233.2,176.6 -368.3,229.1 -147.2,57.1 -296.3,57.5 -409.2,0.9 -242.7,-121.6 -282.7,-459.3 -239.2,-734.8 66.9,-423.2 248.3,-819.9 524.7,-1147.3 8.9,-10.5 7.6,-26.3 -3,-35.2 -4.7,-4 -10.4,-5.9 -16.1,-5.9"
           style="fill:#d22a27;fill-opacity:1;fill-rule:nonzero;stroke:none"
           id="path15150" /></g></g></g></svg>
